<svg id="Layer_1" data-name="Layer 1" xmlns="http://www.w3.org/2000/svg" viewBox="0 0 640 222.19"><defs><style>.cls-1{fill:#ef4123;}</style></defs><title>logo-delino-en</title><path class="cls-1" d="M324.57,25.26c7,0,12.46-5.6,13.42-12.65S335,.73,328,.73a13.77,13.77,0,0,0-13.81,11.88c-1,7,3.38,12.65,10.33,12.65"/><path class="cls-1" d="M187.18,51c-.68-16.51-11.59-41.52-21.24-49.82-3.38-2.9-13.32-.48-13.71,7.15a5.84,5.84,0,0,0,2.22,5.12c15.16,11.59,25.59,47.6,16,70.58-5.21,12.36-14.58,22.11-27.81,21.44-8.5-.39-14.77-7.63-12.75-16.51C132,79.52,146,63.39,159.66,61.75c4-.48,7.72-4.44,8.88-8.3,1.26-4.06-1.16-7.82-5.31-7.34C141,48.62,124.61,69.77,119.59,88c-4.34,15.93,1.93,29.45,15.16,31.67,20.37,2.41,32.54-8.79,42.29-23.85C185.25,83.09,187.85,67,187.18,51"/><path class="cls-1" d="M487.27,63.11c-1.45-6.76-4.63-12.55-9.95-16.12a21.11,21.11,0,0,0-11-3.67c-5.7-.29-11.88,1.64-17.57,5.21a20.68,20.68,0,0,0-1.83,1.26c-2.9-.77-6.37-.1-7.53,2.32-1.64,3.38-4.34,8.4-7.63,14.1-.1.1-.1.19-.19.29a19.15,19.15,0,0,0-1.06,1.93c-8.5,14.68-20,32.83-26.26,39.39a.87.87,0,0,1-1.35-.19c-2.41-4.92-4.44-15,10.91-57,2-5.5-4.44-12.65-13.71-2.8-10.52,11.1-21,25.88-29.84,38.24a.86.86,0,0,1-1.54-.58c1.06-11.39,3.28-27,3.86-37.46.19-3-7.15-9-14.29.19-11.3,14.48-25,35-37.85,48.47a41.56,41.56,0,0,1-6.08,5.89c1.83-19.7,3.77-34.37,8.3-51.27.48-.87,1.06-1.64,1.54-2.51,3.48-7-7.82-8.59-13.13-.1a14.77,14.77,0,0,0-1,3.57c-.1.19-.1.48-.19.68-4.34,22.5-21.82,56.48-38.72,54.26-4.92-.68-9.17-5.21-12.07-9.17V98a3.88,3.88,0,0,1,.77-4.15C270,81.93,280.06,66,288.85,47.46c9.85-20.86,12-36.21,5.89-41.9A10.58,10.58,0,0,0,287.3,3a19.22,19.22,0,0,0-5.89,1c-5.5,1.64-11.78,7.72-18.54,18.06a161.07,161.07,0,0,0-13.42,25.59C241.54,66.77,239,82.9,241.92,95.35c.29,1.06-.39,2.51-1.74,3.67-6.47,5.5-12.65,8.5-17.48,8.5a5.1,5.1,0,0,1-1.26-.1,18.94,18.94,0,0,1-12.26-6.08c-.87-1.06-.29-2.9,1.35-4.34,9.08-7.82,21-23.17,27.32-35.15,3.09-5.79,3.77-10.62,2-13.9-1.54-3-5.12-4.63-10-4.63-4,0-18.15.77-31.77,18-7.63,9.66-10.23,23.66-9.08,36.21a4.52,4.52,0,0,1-2.22,4c-3.67,2.51-7.43,4.92-11.3,7.15-3,1.74-4.83,4.15-5,6.47-.19,2.7,1.83,4.63,4.83,4.63a10.89,10.89,0,0,0,5.31-1.64c3.48-1.93,6.86-4.15,10.33-6.37,1.83-1.26,3.86-1.26,4.73-.19a22.2,22.2,0,0,0,16,8.4,26.21,26.21,0,0,0,2.8.1c9,0,19.21-3.77,28.68-10.52,1.93-1.35,4-1.45,5.12-.48a11,11,0,0,1,1.06,1.06c.29.48.58.87,1,1.45.1.1.1.19.19.29h0a10.93,10.93,0,0,0,1,1.26c4.54,6.28,12.17,7.24,16.22,7.53,14.1,1,26.75-13.42,35.24-29.45h0a.83.83,0,0,1,1-.39c.39.1.48.39.48.87-1.16,9.08-2,17.09-2.41,21V113c0,.29-.1.58-.1.87-.87,6.47,10.72,9.17,17.77,2,13-13,22.5-29.26,33.6-44.7a.86.86,0,0,1,1.54.58c-1.06,13.32-3.19,30.7-4.15,43.35-.48,6.76,10.62,7.63,15.35-.19,6.86-11.49,15.16-25.68,23.46-37.08a.81.81,0,0,1,1.45.68,150.93,150.93,0,0,0-3.19,16.61c-.68,7-1.74,15.64,2.41,21.63,4.34,6.28,15.55,3.67,21.34-.48,5.6-4,9.95-9.08,13.81-14.48a25.91,25.91,0,0,0,9.85,14.1,26.42,26.42,0,0,0,13.52,4.63c7.92.39,15.93-2.8,22.59-8.69a44.72,44.72,0,0,0,8.88-10.81c6.66-11.3,9.66-26.07,7.15-37.95M201.47,85.31c.1-20,25.49-35.63,27.61-30.32.87,2.32-17.77,26.26-20.57,29.16-4.06,4.15-7,3.77-7,1.16M256,71.12a28.31,28.31,0,0,1,.48-2.8c4.25-24.14,19.7-48,25-53a1.57,1.57,0,0,1,.87.39c2.12,2,3.09,10.91-6.76,31.67a206.74,206.74,0,0,1-12.55,23.17c-5.5,8.5-7.43,3.86-7,.58M468.63,94.49c-4.25,7.15-10.33,11-16.7,10.72a14.65,14.65,0,0,1-7.72-2.7c-7.63-5.21-8.21-18-1.26-29.64,5.21-8.79,13.52-14.68,20.08-14.39a10.49,10.49,0,0,1,5.21,1.74c7.43,5.21,7.63,22.11.39,34.28"/><path class="cls-1" d="M1.41,104.1c-6,11.2,8.8,17.3,12.5,7.1,10.9-29.8,31.4-32.6,52.3-35.7,7.3-1.1,8.1-14.1-1.9-12.5-20.8,3.4-45.4,8.6-62.9,41.1Z"/><path class="cls-1" d="M640,86.8a7.15,7.15,0,0,0-7.3-7.3,7.81,7.81,0,0,0-7.3,7.9,7.15,7.15,0,0,0,7.3,7.3A7.81,7.81,0,0,0,640,86.8Z"/><path class="cls-1" d="M608.71,91.1c-517.6,227.5-540.1,46.7-548.5,23.4-7.1-19.8-25.1-5.4-20.2,7.9,12.1,33.3,45.6,104.9,166.3,99.5,151.6-6.8,355.5-97.9,407-118.6,1.7-.7,8.5-3.7,6.3-9.8-2.1-5.5-10.9-2.4-10.9-2.4Z"/></svg>